<svg xmlns="http://www.w3.org/2000/svg" width="153" height="153" viewBox="0 0 153 153">
  <g id="Group_218" data-name="Group 218" transform="translate(-120 -192)">
    <circle id="Ellipse_5" data-name="Ellipse 5" cx="76.5" cy="76.5" r="76.5" transform="translate(120 192)" fill="#b2aac0" opacity="0.297"/>
    <path id="cart.fill.badge.plus" d="M86.854,41.311A20.382,20.382,0,0,0,107.028,21.1,20.174,20.174,0,1,0,86.854,41.311ZM32.562,66.577h45.6a3.506,3.506,0,1,0,0-7.012H33.463c-1.88,0-3.016-1.292-3.33-3.29L29.507,52.2H78.471c4.035,0,6.7-1.645,8.187-4.622l.353-.705A25.854,25.854,0,0,1,61.079,21.1a27.879,27.879,0,0,1,.235-3.6H24.532l-.627-4.231c-.548-3.408-1.88-5.132-6.228-5.132H4.241a3.741,3.741,0,0,0,0,7.482H16.5l6.072,41.444C23.435,62.973,26.569,66.577,32.562,66.577ZM74.045,21.1a2.57,2.57,0,0,1,2.7-2.7h7.4V11.031a2.7,2.7,0,1,1,5.405,0V18.4h7.4a2.57,2.57,0,0,1,2.7,2.7,2.549,2.549,0,0,1-2.7,2.7h-7.4v7.443a2.7,2.7,0,0,1-5.405,0V23.8h-7.4A2.549,2.549,0,0,1,74.045,21.1ZM28.919,79.386a6.855,6.855,0,1,0,6.855-6.855A6.838,6.838,0,0,0,28.919,79.386Zm36.156,0a6.855,6.855,0,1,0,6.894-6.855A6.871,6.871,0,0,0,65.075,79.386Z" transform="translate(142.707 228.917)" fill="#67548b"/>
  </g>
</svg>
